<?xml version="1.0" encoding="UTF-8"?>
<svg xmlns="http://www.w3.org/2000/svg" xmlns:xlink="http://www.w3.org/1999/xlink" width="60px" height="60px" viewBox="0 0 60 60" version="1.1">
<g id="surface1">
<path style=" stroke:none;fill-rule:nonzero;fill:rgb(0%,0%,0%);fill-opacity:1;" d="M 0.453125 6.429688 C 1.226562 4.792969 2.875 3.75 4.6875 3.75 L 55.3125 3.75 C 57.128906 3.75 58.769531 4.792969 59.542969 6.429688 C 60.328125 8.066406 60.082031 10.003906 58.839844 11.40625 L 37.5 37.605469 L 37.5 52.5 C 37.5 53.917969 36.703125 55.21875 35.425781 55.851562 C 34.160156 56.484375 32.636719 56.355469 31.5 55.5 L 24 49.875 C 23.050781 49.171875 22.5 48.058594 22.5 46.875 L 22.5 37.605469 L 1.058594 11.40625 C -0.0859375 10.003906 -0.324219 8.066406 0.453125 6.429688 Z M 0.453125 6.429688 "/>
</g>
</svg>
